{
	"asset":{
		"generator":"Khronos glTF Blender I/O v5.0.21",
		"version":"2.0"
	},
	"scene":0,
	"scenes":[
		{
			"name":"Scene",
			"nodes":[
				4
			]
		}
	],
	"nodes":[
		{
			"mesh":0,
			"name":"Low_Poly_Male_body:Group2_lambert1_0"
		},
		{
			"children":[
				0
			],
			"name":"Low_Poly_Male_body:Group2"
		},
		{
			"children":[
				1
			],
			"name":"RootNode"
		},
		{
			"children":[
				2
			],
			"name":"89a20444064049c0a6f05660930fa81f.fbx",
			"rotation":[
				0.70710688829422,
				0,
				0,
				0.7071066498756409
			]
		},
		{
			"children":[
				3
			],
			"name":"Sketchfab_model",
			"rotation":[
				-0.70710688829422,
				0,
				0,
				0.7071066498756409
			]
		}
	],
	"materials":[
		{
			"doubleSided":true,
			"name":"epigastric",
			"pbrMetallicRoughness":{
				"baseColorFactor":[
					0.800000011920929,
					0.800000011920929,
					0.800000011920929,
					1
				],
				"metallicFactor":0,
				"roughnessFactor":0.5
			}
		},
		{
			"doubleSided":true,
			"name":"abdomen_up",
			"pbrMetallicRoughness":{
				"baseColorFactor":[
					0.800000011920929,
					0.800000011920929,
					0.800000011920929,
					1
				],
				"metallicFactor":0,
				"roughnessFactor":0.5
			}
		},
		{
			"doubleSided":true,
			"name":"abdomen_down",
			"pbrMetallicRoughness":{
				"baseColorFactor":[
					0.800000011920929,
					0.800000011920929,
					0.800000011920929,
					1
				],
				"metallicFactor":0,
				"roughnessFactor":0.5
			}
		}
	],
	"meshes":[
		{
			"name":"Low_Poly_Male_body:Group2_lambert1_0",
			"primitives":[
				{
					"attributes":{
						"POSITION":0,
						"NORMAL":1,
						"TEXCOORD_0":2
					},
					"indices":3,
					"material":0
				},
				{
					"attributes":{
						"POSITION":4,
						"NORMAL":5,
						"TEXCOORD_0":6
					},
					"indices":7,
					"material":1
				},
				{
					"attributes":{
						"POSITION":8,
						"NORMAL":9,
						"TEXCOORD_0":10
					},
					"indices":11,
					"material":2
				}
			]
		}
	],
	"accessors":[
		{
			"bufferView":0,
			"componentType":5126,
			"count":40,
			"max":[
				2.509438991546631,
				128.91050720214844,
				12.402458190917969
			],
			"min":[
				-2.509438991546631,
				115.87989044189453,
				10.67978286743164
			],
			"type":"VEC3"
		},
		{
			"bufferView":1,
			"componentType":5126,
			"count":40,
			"type":"VEC3"
		},
		{
			"bufferView":2,
			"componentType":5126,
			"count":40,
			"type":"VEC2"
		},
		{
			"bufferView":3,
			"componentType":5123,
			"count":60,
			"type":"SCALAR"
		},
		{
			"bufferView":4,
			"componentType":5126,
			"count":324,
			"max":[
				14.290070533752441,
				129.82131958007812,
				12.402458190917969
			],
			"min":[
				-14.290070533752441,
				112.83990478515625,
				1.9053629636764526
			],
			"type":"VEC3"
		},
		{
			"bufferView":5,
			"componentType":5126,
			"count":324,
			"type":"VEC3"
		},
		{
			"bufferView":6,
			"componentType":5126,
			"count":324,
			"type":"VEC2"
		},
		{
			"bufferView":7,
			"componentType":5123,
			"count":480,
			"type":"SCALAR"
		},
		{
			"bufferView":8,
			"componentType":5126,
			"count":392,
			"max":[
				15.06506061553955,
				116.9837417602539,
				12.977726936340332
			],
			"min":[
				-15.06506061553955,
				99.38599395751953,
				1.8047338724136353
			],
			"type":"VEC3"
		},
		{
			"bufferView":9,
			"componentType":5126,
			"count":392,
			"type":"VEC3"
		},
		{
			"bufferView":10,
			"componentType":5126,
			"count":392,
			"type":"VEC2"
		},
		{
			"bufferView":11,
			"componentType":5123,
			"count":588,
			"type":"SCALAR"
		}
	],
	"bufferViews":[
		{
			"buffer":0,
			"byteLength":480,
			"byteOffset":0,
			"target":34962
		},
		{
			"buffer":0,
			"byteLength":480,
			"byteOffset":480,
			"target":34962
		},
		{
			"buffer":0,
			"byteLength":320,
			"byteOffset":960,
			"target":34962
		},
		{
			"buffer":0,
			"byteLength":120,
			"byteOffset":1280,
			"target":34963
		},
		{
			"buffer":0,
			"byteLength":3888,
			"byteOffset":1400,
			"target":34962
		},
		{
			"buffer":0,
			"byteLength":3888,
			"byteOffset":5288,
			"target":34962
		},
		{
			"buffer":0,
			"byteLength":2592,
			"byteOffset":9176,
			"target":34962
		},
		{
			"buffer":0,
			"byteLength":960,
			"byteOffset":11768,
			"target":34963
		},
		{
			"buffer":0,
			"byteLength":4704,
			"byteOffset":12728,
			"target":34962
		},
		{
			"buffer":0,
			"byteLength":4704,
			"byteOffset":17432,
			"target":34962
		},
		{
			"buffer":0,
			"byteLength":3136,
			"byteOffset":22136,
			"target":34962
		},
		{
			"buffer":0,
			"byteLength":1176,
			"byteOffset":25272,
			"target":34963
		}
	],
	"buffers":[
		{
			"byteLength":26448,
			"uri":"abdomen.bin"
		}
	]
}
