{
	"asset":{
		"generator":"Khronos glTF Blender I/O v5.0.21",
		"version":"2.0"
	},
	"scene":0,
	"scenes":[
		{
			"name":"Scene",
			"nodes":[
				4
			]
		}
	],
	"nodes":[
		{
			"mesh":0,
			"name":"Low_Poly_Male_body:Group2_lambert1_0",
			"rotation":[
				1,
				0,
				0,
				0
			],
			"scale":[
				-1,
				-1,
				-1
			]
		},
		{
			"children":[
				0
			],
			"name":"Low_Poly_Male_body:Group2"
		},
		{
			"children":[
				1
			],
			"name":"RootNode"
		},
		{
			"children":[
				2
			],
			"name":"89a20444064049c0a6f05660930fa81f.fbx",
			"rotation":[
				0.70710688829422,
				0,
				0,
				0.7071066498756409
			]
		},
		{
			"children":[
				3
			],
			"name":"Sketchfab_model",
			"rotation":[
				-0.70710688829422,
				0,
				0,
				0.7071066498756409
			]
		}
	],
	"materials":[
		{
			"doubleSided":true,
			"name":"shoulder_L",
			"pbrMetallicRoughness":{
				"baseColorFactor":[
					0.800000011920929,
					0.800000011920929,
					0.800000011920929,
					1
				],
				"metallicFactor":0,
				"roughnessFactor":0.5
			}
		},
		{
			"doubleSided":true,
			"name":"upperarm_L",
			"pbrMetallicRoughness":{
				"baseColorFactor":[
					0.800000011920929,
					0.800000011920929,
					0.800000011920929,
					1
				],
				"metallicFactor":0,
				"roughnessFactor":0.5
			}
		},
		{
			"doubleSided":true,
			"name":"elbow_L",
			"pbrMetallicRoughness":{
				"baseColorFactor":[
					0.800000011920929,
					0.800000011920929,
					0.800000011920929,
					1
				],
				"metallicFactor":0,
				"roughnessFactor":0.5
			}
		},
		{
			"doubleSided":true,
			"name":"forearm_L",
			"pbrMetallicRoughness":{
				"baseColorFactor":[
					0.800000011920929,
					0.800000011920929,
					0.800000011920929,
					1
				],
				"metallicFactor":0,
				"roughnessFactor":0.5
			}
		},
		{
			"doubleSided":true,
			"name":"wrist_L",
			"pbrMetallicRoughness":{
				"baseColorFactor":[
					0.800000011920929,
					0.800000011920929,
					0.800000011920929,
					1
				],
				"metallicFactor":0,
				"roughnessFactor":0.5
			}
		},
		{
			"doubleSided":true,
			"name":"hand_L",
			"pbrMetallicRoughness":{
				"baseColorFactor":[
					0.800000011920929,
					0.800000011920929,
					0.800000011920929,
					1
				],
				"metallicFactor":0,
				"roughnessFactor":0.5
			}
		}
	],
	"meshes":[
		{
			"name":"Low_Poly_Male_body:Group2_lambert1_0",
			"primitives":[
				{
					"attributes":{
						"POSITION":0,
						"NORMAL":1,
						"TEXCOORD_0":2
					},
					"indices":3,
					"material":0
				},
				{
					"attributes":{
						"POSITION":4,
						"NORMAL":5,
						"TEXCOORD_0":6
					},
					"indices":7,
					"material":1
				},
				{
					"attributes":{
						"POSITION":8,
						"NORMAL":9,
						"TEXCOORD_0":10
					},
					"indices":11,
					"material":2
				},
				{
					"attributes":{
						"POSITION":12,
						"NORMAL":13,
						"TEXCOORD_0":14
					},
					"indices":15,
					"material":3
				},
				{
					"attributes":{
						"POSITION":16,
						"NORMAL":17,
						"TEXCOORD_0":18
					},
					"indices":19,
					"material":4
				},
				{
					"attributes":{
						"POSITION":20,
						"NORMAL":21,
						"TEXCOORD_0":22
					},
					"indices":23,
					"material":5
				}
			]
		}
	],
	"accessors":[
		{
			"bufferView":0,
			"componentType":5126,
			"count":234,
			"max":[
				27.591367721557617,
				148.61183166503906,
				5.30577278137207
			],
			"min":[
				11.517538070678711,
				129.33700561523438,
				-15.137272834777832
			],
			"type":"VEC3"
		},
		{
			"bufferView":1,
			"componentType":5126,
			"count":234,
			"type":"VEC3"
		},
		{
			"bufferView":2,
			"componentType":5126,
			"count":234,
			"type":"VEC2"
		},
		{
			"bufferView":3,
			"componentType":5123,
			"count":348,
			"type":"SCALAR"
		},
		{
			"bufferView":4,
			"componentType":5126,
			"count":256,
			"max":[
				35.16713333129883,
				136.54933166503906,
				0.4762830138206482
			],
			"min":[
				19.25784683227539,
				118.80310821533203,
				-13.253910064697266
			],
			"type":"VEC3"
		},
		{
			"bufferView":5,
			"componentType":5126,
			"count":256,
			"type":"VEC3"
		},
		{
			"bufferView":6,
			"componentType":5126,
			"count":256,
			"type":"VEC2"
		},
		{
			"bufferView":7,
			"componentType":5123,
			"count":378,
			"type":"SCALAR"
		},
		{
			"bufferView":8,
			"componentType":5126,
			"count":374,
			"max":[
				42.91794204711914,
				125.16561889648438,
				3.2636940479278564
			],
			"min":[
				27.61397933959961,
				109.32256317138672,
				-12.137725830078125
			],
			"type":"VEC3"
		},
		{
			"bufferView":9,
			"componentType":5126,
			"count":374,
			"type":"VEC3"
		},
		{
			"bufferView":10,
			"componentType":5126,
			"count":374,
			"type":"VEC2"
		},
		{
			"bufferView":11,
			"componentType":5123,
			"count":558,
			"type":"SCALAR"
		},
		{
			"bufferView":12,
			"componentType":5126,
			"count":434,
			"max":[
				50.654781341552734,
				115.42915344238281,
				11.504396438598633
			],
			"min":[
				35.10221862792969,
				98.39564514160156,
				-4.580239772796631
			],
			"type":"VEC3"
		},
		{
			"bufferView":13,
			"componentType":5126,
			"count":434,
			"type":"VEC3"
		},
		{
			"bufferView":14,
			"componentType":5126,
			"count":434,
			"type":"VEC2"
		},
		{
			"bufferView":15,
			"componentType":5123,
			"count":648,
			"type":"SCALAR"
		},
		{
			"bufferView":16,
			"componentType":5126,
			"count":147,
			"max":[
				51.7349967956543,
				101.27190399169922,
				14.068330764770508
			],
			"min":[
				44.93645477294922,
				96.4559326171875,
				6.087652206420898
			],
			"type":"VEC3"
		},
		{
			"bufferView":17,
			"componentType":5126,
			"count":147,
			"type":"VEC3"
		},
		{
			"bufferView":18,
			"componentType":5126,
			"count":147,
			"type":"VEC2"
		},
		{
			"bufferView":19,
			"componentType":5123,
			"count":219,
			"type":"SCALAR"
		},
		{
			"bufferView":20,
			"componentType":5126,
			"count":4023,
			"max":[
				53.39891052246094,
				98.34959411621094,
				20.647537231445312
			],
			"min":[
				43.15593338012695,
				78.82428741455078,
				6.645936012268066
			],
			"type":"VEC3"
		},
		{
			"bufferView":21,
			"componentType":5126,
			"count":4023,
			"type":"VEC3"
		},
		{
			"bufferView":22,
			"componentType":5126,
			"count":4023,
			"type":"VEC2"
		},
		{
			"bufferView":23,
			"componentType":5123,
			"count":5991,
			"type":"SCALAR"
		}
	],
	"bufferViews":[
		{
			"buffer":0,
			"byteLength":2808,
			"byteOffset":0,
			"target":34962
		},
		{
			"buffer":0,
			"byteLength":2808,
			"byteOffset":2808,
			"target":34962
		},
		{
			"buffer":0,
			"byteLength":1872,
			"byteOffset":5616,
			"target":34962
		},
		{
			"buffer":0,
			"byteLength":696,
			"byteOffset":7488,
			"target":34963
		},
		{
			"buffer":0,
			"byteLength":3072,
			"byteOffset":8184,
			"target":34962
		},
		{
			"buffer":0,
			"byteLength":3072,
			"byteOffset":11256,
			"target":34962
		},
		{
			"buffer":0,
			"byteLength":2048,
			"byteOffset":14328,
			"target":34962
		},
		{
			"buffer":0,
			"byteLength":756,
			"byteOffset":16376,
			"target":34963
		},
		{
			"buffer":0,
			"byteLength":4488,
			"byteOffset":17132,
			"target":34962
		},
		{
			"buffer":0,
			"byteLength":4488,
			"byteOffset":21620,
			"target":34962
		},
		{
			"buffer":0,
			"byteLength":2992,
			"byteOffset":26108,
			"target":34962
		},
		{
			"buffer":0,
			"byteLength":1116,
			"byteOffset":29100,
			"target":34963
		},
		{
			"buffer":0,
			"byteLength":5208,
			"byteOffset":30216,
			"target":34962
		},
		{
			"buffer":0,
			"byteLength":5208,
			"byteOffset":35424,
			"target":34962
		},
		{
			"buffer":0,
			"byteLength":3472,
			"byteOffset":40632,
			"target":34962
		},
		{
			"buffer":0,
			"byteLength":1296,
			"byteOffset":44104,
			"target":34963
		},
		{
			"buffer":0,
			"byteLength":1764,
			"byteOffset":45400,
			"target":34962
		},
		{
			"buffer":0,
			"byteLength":1764,
			"byteOffset":47164,
			"target":34962
		},
		{
			"buffer":0,
			"byteLength":1176,
			"byteOffset":48928,
			"target":34962
		},
		{
			"buffer":0,
			"byteLength":438,
			"byteOffset":50104,
			"target":34963
		},
		{
			"buffer":0,
			"byteLength":48276,
			"byteOffset":50544,
			"target":34962
		},
		{
			"buffer":0,
			"byteLength":48276,
			"byteOffset":98820,
			"target":34962
		},
		{
			"buffer":0,
			"byteLength":32184,
			"byteOffset":147096,
			"target":34962
		},
		{
			"buffer":0,
			"byteLength":11982,
			"byteOffset":179280,
			"target":34963
		}
	],
	"buffers":[
		{
			"byteLength":191264,
			"uri":"arm_L.bin"
		}
	]
}
