{
	"asset":{
		"generator":"Khronos glTF Blender I/O v5.0.21",
		"version":"2.0"
	},
	"scene":0,
	"scenes":[
		{
			"name":"Scene",
			"nodes":[
				4
			]
		}
	],
	"nodes":[
		{
			"mesh":0,
			"name":"Low_Poly_Male_body:Group2_lambert1_0"
		},
		{
			"children":[
				0
			],
			"name":"Low_Poly_Male_body:Group2"
		},
		{
			"children":[
				1
			],
			"name":"RootNode"
		},
		{
			"children":[
				2
			],
			"name":"89a20444064049c0a6f05660930fa81f.fbx",
			"rotation":[
				0.70710688829422,
				0,
				0,
				0.7071066498756409
			]
		},
		{
			"children":[
				3
			],
			"name":"Sketchfab_model",
			"rotation":[
				-0.70710688829422,
				0,
				0,
				0.7071066498756409
			]
		}
	],
	"materials":[
		{
			"doubleSided":true,
			"name":"neck",
			"pbrMetallicRoughness":{
				"baseColorFactor":[
					0.800000011920929,
					0.800000011920929,
					0.800000011920929,
					1
				],
				"metallicFactor":0,
				"roughnessFactor":0.5
			}
		},
		{
			"doubleSided":true,
			"name":"chest_up",
			"pbrMetallicRoughness":{
				"baseColorFactor":[
					0.800000011920929,
					0.800000011920929,
					0.800000011920929,
					1
				],
				"metallicFactor":0,
				"roughnessFactor":0.5
			}
		},
		{
			"doubleSided":true,
			"name":"sternum",
			"pbrMetallicRoughness":{
				"baseColorFactor":[
					0.800000011920929,
					0.800000011920929,
					0.800000011920929,
					1
				],
				"metallicFactor":0,
				"roughnessFactor":0.5
			}
		},
		{
			"doubleSided":true,
			"name":"breasts",
			"pbrMetallicRoughness":{
				"baseColorFactor":[
					0.800000011920929,
					0.800000011920929,
					0.800000011920929,
					1
				],
				"metallicFactor":0,
				"roughnessFactor":0.5
			}
		}
	],
	"meshes":[
		{
			"name":"Low_Poly_Male_body:Group2_lambert1_0",
			"primitives":[
				{
					"attributes":{
						"POSITION":0,
						"NORMAL":1,
						"TEXCOORD_0":2
					},
					"indices":3,
					"material":0
				},
				{
					"attributes":{
						"POSITION":4,
						"NORMAL":5,
						"TEXCOORD_0":6
					},
					"indices":7,
					"material":1
				},
				{
					"attributes":{
						"POSITION":8,
						"NORMAL":9,
						"TEXCOORD_0":10
					},
					"indices":11,
					"material":2
				},
				{
					"attributes":{
						"POSITION":12,
						"NORMAL":13,
						"TEXCOORD_0":14
					},
					"indices":15,
					"material":3
				}
			]
		}
	],
	"accessors":[
		{
			"bufferView":0,
			"componentType":5126,
			"count":953,
			"max":[
				19.74309539794922,
				156.87399291992188,
				5.732546329498291
			],
			"min":[
				-20.191749572753906,
				144.85096740722656,
				-14.335492134094238
			],
			"type":"VEC3"
		},
		{
			"bufferView":1,
			"componentType":5126,
			"count":953,
			"type":"VEC3"
		},
		{
			"bufferView":2,
			"componentType":5126,
			"count":953,
			"type":"VEC2"
		},
		{
			"bufferView":3,
			"componentType":5123,
			"count":1395,
			"type":"SCALAR"
		},
		{
			"bufferView":4,
			"componentType":5126,
			"count":422,
			"max":[
				20.191749572753906,
				152.49464416503906,
				6.550117492675781
			],
			"min":[
				-20.191749572753906,
				143.74818420410156,
				-4.796103000640869
			],
			"type":"VEC3"
		},
		{
			"bufferView":5,
			"componentType":5126,
			"count":422,
			"type":"VEC3"
		},
		{
			"bufferView":6,
			"componentType":5126,
			"count":422,
			"type":"VEC2"
		},
		{
			"bufferView":7,
			"componentType":5123,
			"count":600,
			"type":"SCALAR"
		},
		{
			"bufferView":8,
			"componentType":5126,
			"count":88,
			"max":[
				2.509438991546631,
				144.11013793945312,
				11.14501953125
			],
			"min":[
				-2.509438991546631,
				128.70606994628906,
				6.09284782409668
			],
			"type":"VEC3"
		},
		{
			"bufferView":9,
			"componentType":5126,
			"count":88,
			"type":"VEC3"
		},
		{
			"bufferView":10,
			"componentType":5126,
			"count":88,
			"type":"VEC2"
		},
		{
			"bufferView":11,
			"componentType":5123,
			"count":132,
			"type":"SCALAR"
		},
		{
			"bufferView":12,
			"componentType":5126,
			"count":2076,
			"max":[
				19.743871688842773,
				147.91246032714844,
				11.419296264648438
			],
			"min":[
				-19.743871688842773,
				126.31238555908203,
				-0.5845640301704407
			],
			"type":"VEC3"
		},
		{
			"bufferView":13,
			"componentType":5126,
			"count":2076,
			"type":"VEC3"
		},
		{
			"bufferView":14,
			"componentType":5126,
			"count":2076,
			"type":"VEC2"
		},
		{
			"bufferView":15,
			"componentType":5123,
			"count":3012,
			"type":"SCALAR"
		}
	],
	"bufferViews":[
		{
			"buffer":0,
			"byteLength":11436,
			"byteOffset":0,
			"target":34962
		},
		{
			"buffer":0,
			"byteLength":11436,
			"byteOffset":11436,
			"target":34962
		},
		{
			"buffer":0,
			"byteLength":7624,
			"byteOffset":22872,
			"target":34962
		},
		{
			"buffer":0,
			"byteLength":2790,
			"byteOffset":30496,
			"target":34963
		},
		{
			"buffer":0,
			"byteLength":5064,
			"byteOffset":33288,
			"target":34962
		},
		{
			"buffer":0,
			"byteLength":5064,
			"byteOffset":38352,
			"target":34962
		},
		{
			"buffer":0,
			"byteLength":3376,
			"byteOffset":43416,
			"target":34962
		},
		{
			"buffer":0,
			"byteLength":1200,
			"byteOffset":46792,
			"target":34963
		},
		{
			"buffer":0,
			"byteLength":1056,
			"byteOffset":47992,
			"target":34962
		},
		{
			"buffer":0,
			"byteLength":1056,
			"byteOffset":49048,
			"target":34962
		},
		{
			"buffer":0,
			"byteLength":704,
			"byteOffset":50104,
			"target":34962
		},
		{
			"buffer":0,
			"byteLength":264,
			"byteOffset":50808,
			"target":34963
		},
		{
			"buffer":0,
			"byteLength":24912,
			"byteOffset":51072,
			"target":34962
		},
		{
			"buffer":0,
			"byteLength":24912,
			"byteOffset":75984,
			"target":34962
		},
		{
			"buffer":0,
			"byteLength":16608,
			"byteOffset":100896,
			"target":34962
		},
		{
			"buffer":0,
			"byteLength":6024,
			"byteOffset":117504,
			"target":34963
		}
	],
	"buffers":[
		{
			"byteLength":123528,
			"uri":"chest.bin"
		}
	]
}
