{
	"asset":{
		"generator":"Khronos glTF Blender I/O v5.0.21",
		"version":"2.0"
	},
	"scene":0,
	"scenes":[
		{
			"name":"Scene",
			"nodes":[
				4
			]
		}
	],
	"nodes":[
		{
			"mesh":0,
			"name":"Low_Poly_Male_body:Group2_lambert1_0"
		},
		{
			"children":[
				0
			],
			"name":"Low_Poly_Male_body:Group2"
		},
		{
			"children":[
				1
			],
			"name":"RootNode"
		},
		{
			"children":[
				2
			],
			"name":"89a20444064049c0a6f05660930fa81f.fbx",
			"rotation":[
				0.70710688829422,
				0,
				0,
				0.7071066498756409
			]
		},
		{
			"children":[
				3
			],
			"name":"Sketchfab_model",
			"rotation":[
				-0.70710688829422,
				0,
				0,
				0.7071066498756409
			]
		}
	],
	"materials":[
		{
			"doubleSided":true,
			"name":"scalp",
			"pbrMetallicRoughness":{
				"baseColorFactor":[
					0.800000011920929,
					0.800000011920929,
					0.800000011920929,
					1
				],
				"metallicFactor":0,
				"roughnessFactor":0.5
			}
		},
		{
			"doubleSided":true,
			"name":"nose",
			"pbrMetallicRoughness":{
				"baseColorFactor":[
					0.800000011920929,
					0.800000011920929,
					0.800000011920929,
					1
				],
				"metallicFactor":0,
				"roughnessFactor":0.5
			}
		},
		{
			"doubleSided":true,
			"name":"eyes",
			"pbrMetallicRoughness":{
				"baseColorFactor":[
					0.800000011920929,
					0.800000011920929,
					0.800000011920929,
					1
				],
				"metallicFactor":0,
				"roughnessFactor":0.5
			}
		},
		{
			"doubleSided":true,
			"name":"ears",
			"pbrMetallicRoughness":{
				"baseColorFactor":[
					0.800000011920929,
					0.800000011920929,
					0.800000011920929,
					1
				],
				"metallicFactor":0,
				"roughnessFactor":0.5
			}
		},
		{
			"doubleSided":true,
			"name":"jaw",
			"pbrMetallicRoughness":{
				"baseColorFactor":[
					0.800000011920929,
					0.800000011920929,
					0.800000011920929,
					1
				],
				"metallicFactor":0,
				"roughnessFactor":0.5
			}
		}
	],
	"meshes":[
		{
			"name":"Low_Poly_Male_body:Group2_lambert1_0",
			"primitives":[
				{
					"attributes":{
						"POSITION":0,
						"NORMAL":1,
						"TEXCOORD_0":2
					},
					"indices":3,
					"material":0
				},
				{
					"attributes":{
						"POSITION":4,
						"NORMAL":5,
						"TEXCOORD_0":6
					},
					"indices":7,
					"material":1
				},
				{
					"attributes":{
						"POSITION":8,
						"NORMAL":9,
						"TEXCOORD_0":10
					},
					"indices":11,
					"material":2
				},
				{
					"attributes":{
						"POSITION":12,
						"NORMAL":13,
						"TEXCOORD_0":14
					},
					"indices":15,
					"material":3
				},
				{
					"attributes":{
						"POSITION":16,
						"NORMAL":17,
						"TEXCOORD_0":18
					},
					"indices":19,
					"material":4
				}
			]
		}
	],
	"accessors":[
		{
			"bufferView":0,
			"componentType":5126,
			"count":933,
			"max":[
				7.824601173400879,
				180.5357208251953,
				10.417082786560059
			],
			"min":[
				-7.824601173400879,
				157.634521484375,
				-9.611218452453613
			],
			"type":"VEC3"
		},
		{
			"bufferView":1,
			"componentType":5126,
			"count":933,
			"type":"VEC3"
		},
		{
			"bufferView":2,
			"componentType":5126,
			"count":933,
			"type":"VEC2"
		},
		{
			"bufferView":3,
			"componentType":5123,
			"count":1389,
			"type":"SCALAR"
		},
		{
			"bufferView":4,
			"componentType":5126,
			"count":970,
			"max":[
				1.9139569997787476,
				170.99658203125,
				13.02766227722168
			],
			"min":[
				-2.24419903755188,
				164.54908752441406,
				9.164711952209473
			],
			"type":"VEC3"
		},
		{
			"bufferView":5,
			"componentType":5126,
			"count":970,
			"type":"VEC3"
		},
		{
			"bufferView":6,
			"componentType":5126,
			"count":970,
			"type":"VEC2"
		},
		{
			"bufferView":7,
			"componentType":5123,
			"count":1440,
			"type":"SCALAR"
		},
		{
			"bufferView":8,
			"componentType":5126,
			"count":2130,
			"max":[
				7.342771530151367,
				172.6680450439453,
				11.055386543273926
			],
			"min":[
				-7.221871852874756,
				165.34645080566406,
				0.9401419162750244
			],
			"type":"VEC3"
		},
		{
			"bufferView":9,
			"componentType":5126,
			"count":2130,
			"type":"VEC3"
		},
		{
			"bufferView":10,
			"componentType":5126,
			"count":2130,
			"type":"VEC2"
		},
		{
			"bufferView":11,
			"componentType":5123,
			"count":3162,
			"type":"SCALAR"
		},
		{
			"bufferView":12,
			"componentType":5126,
			"count":1967,
			"max":[
				9.468849182128906,
				170.44821166992188,
				2.6301589012145996
			],
			"min":[
				-9.468849182128906,
				163.25094604492188,
				-3.6506190299987793
			],
			"type":"VEC3"
		},
		{
			"bufferView":13,
			"componentType":5126,
			"count":1967,
			"type":"VEC3"
		},
		{
			"bufferView":14,
			"componentType":5126,
			"count":1967,
			"type":"VEC2"
		},
		{
			"bufferView":15,
			"componentType":5123,
			"count":2931,
			"type":"SCALAR"
		},
		{
			"bufferView":16,
			"componentType":5126,
			"count":5859,
			"max":[
				7.256182670593262,
				167.58529663085938,
				11.45811653137207
			],
			"min":[
				-7.420537948608398,
				157.32156372070312,
				-3.639981985092163
			],
			"type":"VEC3"
		},
		{
			"bufferView":17,
			"componentType":5126,
			"count":5859,
			"type":"VEC3"
		},
		{
			"bufferView":18,
			"componentType":5126,
			"count":5859,
			"type":"VEC2"
		},
		{
			"bufferView":19,
			"componentType":5123,
			"count":8700,
			"type":"SCALAR"
		}
	],
	"bufferViews":[
		{
			"buffer":0,
			"byteLength":11196,
			"byteOffset":0,
			"target":34962
		},
		{
			"buffer":0,
			"byteLength":11196,
			"byteOffset":11196,
			"target":34962
		},
		{
			"buffer":0,
			"byteLength":7464,
			"byteOffset":22392,
			"target":34962
		},
		{
			"buffer":0,
			"byteLength":2778,
			"byteOffset":29856,
			"target":34963
		},
		{
			"buffer":0,
			"byteLength":11640,
			"byteOffset":32636,
			"target":34962
		},
		{
			"buffer":0,
			"byteLength":11640,
			"byteOffset":44276,
			"target":34962
		},
		{
			"buffer":0,
			"byteLength":7760,
			"byteOffset":55916,
			"target":34962
		},
		{
			"buffer":0,
			"byteLength":2880,
			"byteOffset":63676,
			"target":34963
		},
		{
			"buffer":0,
			"byteLength":25560,
			"byteOffset":66556,
			"target":34962
		},
		{
			"buffer":0,
			"byteLength":25560,
			"byteOffset":92116,
			"target":34962
		},
		{
			"buffer":0,
			"byteLength":17040,
			"byteOffset":117676,
			"target":34962
		},
		{
			"buffer":0,
			"byteLength":6324,
			"byteOffset":134716,
			"target":34963
		},
		{
			"buffer":0,
			"byteLength":23604,
			"byteOffset":141040,
			"target":34962
		},
		{
			"buffer":0,
			"byteLength":23604,
			"byteOffset":164644,
			"target":34962
		},
		{
			"buffer":0,
			"byteLength":15736,
			"byteOffset":188248,
			"target":34962
		},
		{
			"buffer":0,
			"byteLength":5862,
			"byteOffset":203984,
			"target":34963
		},
		{
			"buffer":0,
			"byteLength":70308,
			"byteOffset":209848,
			"target":34962
		},
		{
			"buffer":0,
			"byteLength":70308,
			"byteOffset":280156,
			"target":34962
		},
		{
			"buffer":0,
			"byteLength":46872,
			"byteOffset":350464,
			"target":34962
		},
		{
			"buffer":0,
			"byteLength":17400,
			"byteOffset":397336,
			"target":34963
		}
	],
	"buffers":[
		{
			"byteLength":414736,
			"uri":"head.bin"
		}
	]
}
