{
	"asset":{
		"generator":"Khronos glTF Blender I/O v5.0.21",
		"version":"2.0"
	},
	"scene":0,
	"scenes":[
		{
			"name":"Scene",
			"nodes":[
				4
			]
		}
	],
	"nodes":[
		{
			"mesh":0,
			"name":"Low_Poly_Male_body:Group2_lambert1_0"
		},
		{
			"children":[
				0
			],
			"name":"Low_Poly_Male_body:Group2"
		},
		{
			"children":[
				1
			],
			"name":"RootNode"
		},
		{
			"children":[
				2
			],
			"name":"89a20444064049c0a6f05660930fa81f.fbx",
			"rotation":[
				0.70710688829422,
				0,
				0,
				0.7071066498756409
			]
		},
		{
			"children":[
				3
			],
			"name":"Sketchfab_model",
			"rotation":[
				-0.70710688829422,
				0,
				0,
				0.7071066498756409
			]
		}
	],
	"materials":[
		{
			"doubleSided":true,
			"name":"thigh_R",
			"pbrMetallicRoughness":{
				"baseColorFactor":[
					0.800000011920929,
					0.800000011920929,
					0.800000011920929,
					1
				],
				"metallicFactor":0,
				"roughnessFactor":0.5
			}
		},
		{
			"doubleSided":true,
			"name":"knee_R",
			"pbrMetallicRoughness":{
				"baseColorFactor":[
					0.800000011920929,
					0.800000011920929,
					0.800000011920929,
					1
				],
				"metallicFactor":0,
				"roughnessFactor":0.5
			}
		},
		{
			"doubleSided":true,
			"name":"shin_R",
			"pbrMetallicRoughness":{
				"baseColorFactor":[
					0.800000011920929,
					0.800000011920929,
					0.800000011920929,
					1
				],
				"metallicFactor":0,
				"roughnessFactor":0.5
			}
		},
		{
			"doubleSided":true,
			"name":"ankle_R",
			"pbrMetallicRoughness":{
				"baseColorFactor":[
					0.800000011920929,
					0.800000011920929,
					0.800000011920929,
					1
				],
				"metallicFactor":0,
				"roughnessFactor":0.5
			}
		},
		{
			"doubleSided":true,
			"name":"foot_R",
			"pbrMetallicRoughness":{
				"baseColorFactor":[
					0.800000011920929,
					0.800000011920929,
					0.800000011920929,
					1
				],
				"metallicFactor":0,
				"roughnessFactor":0.5
			}
		}
	],
	"meshes":[
		{
			"name":"Low_Poly_Male_body:Group2_lambert1_0",
			"primitives":[
				{
					"attributes":{
						"POSITION":0,
						"NORMAL":1,
						"TEXCOORD_0":2
					},
					"indices":3,
					"material":0
				},
				{
					"attributes":{
						"POSITION":4,
						"NORMAL":5,
						"TEXCOORD_0":6
					},
					"indices":7,
					"material":1
				},
				{
					"attributes":{
						"POSITION":8,
						"NORMAL":9,
						"TEXCOORD_0":10
					},
					"indices":11,
					"material":2
				},
				{
					"attributes":{
						"POSITION":12,
						"NORMAL":13,
						"TEXCOORD_0":14
					},
					"indices":15,
					"material":3
				},
				{
					"attributes":{
						"POSITION":16,
						"NORMAL":17,
						"TEXCOORD_0":18
					},
					"indices":19,
					"material":4
				}
			]
		}
	],
	"accessors":[
		{
			"bufferView":0,
			"componentType":5126,
			"count":612,
			"max":[
				19.97886848449707,
				82.32759094238281,
				9.943556785583496
			],
			"min":[
				1.6653951406478882,
				54.14763641357422,
				-9.509061813354492
			],
			"type":"VEC3"
		},
		{
			"bufferView":1,
			"componentType":5126,
			"count":612,
			"type":"VEC3"
		},
		{
			"bufferView":2,
			"componentType":5126,
			"count":612,
			"type":"VEC2"
		},
		{
			"bufferView":3,
			"componentType":5123,
			"count":912,
			"type":"SCALAR"
		},
		{
			"bufferView":4,
			"componentType":5126,
			"count":534,
			"max":[
				18.287141799926758,
				56.708858489990234,
				6.0493669509887695
			],
			"min":[
				6.4569549560546875,
				43.116336822509766,
				-8.00301456451416
			],
			"type":"VEC3"
		},
		{
			"bufferView":5,
			"componentType":5126,
			"count":534,
			"type":"VEC3"
		},
		{
			"bufferView":6,
			"componentType":5126,
			"count":534,
			"type":"VEC2"
		},
		{
			"bufferView":7,
			"componentType":5123,
			"count":798,
			"type":"SCALAR"
		},
		{
			"bufferView":8,
			"componentType":5126,
			"count":938,
			"max":[
				20.215497970581055,
				47.879154205322266,
				3.0012030601501465
			],
			"min":[
				8.09070873260498,
				17.23697280883789,
				-11.366305351257324
			],
			"type":"VEC3"
		},
		{
			"bufferView":9,
			"componentType":5126,
			"count":938,
			"type":"VEC3"
		},
		{
			"bufferView":10,
			"componentType":5126,
			"count":938,
			"type":"VEC2"
		},
		{
			"bufferView":11,
			"componentType":5123,
			"count":1398,
			"type":"SCALAR"
		},
		{
			"bufferView":12,
			"componentType":5126,
			"count":259,
			"max":[
				20.07822036743164,
				18.127851486206055,
				-0.10512100905179977
			],
			"min":[
				12.585249900817871,
				7.767649173736572,
				-10.43527889251709
			],
			"type":"VEC3"
		},
		{
			"bufferView":13,
			"componentType":5126,
			"count":259,
			"type":"VEC3"
		},
		{
			"bufferView":14,
			"componentType":5126,
			"count":259,
			"type":"VEC2"
		},
		{
			"bufferView":15,
			"componentType":5123,
			"count":387,
			"type":"SCALAR"
		},
		{
			"bufferView":16,
			"componentType":5126,
			"count":3428,
			"max":[
				27.990482330322266,
				10.911234855651855,
				15.44353199005127
			],
			"min":[
				12.582777976989746,
				0.5811750888824463,
				-11.377209663391113
			],
			"type":"VEC3"
		},
		{
			"bufferView":17,
			"componentType":5126,
			"count":3428,
			"type":"VEC3"
		},
		{
			"bufferView":18,
			"componentType":5126,
			"count":3428,
			"type":"VEC2"
		},
		{
			"bufferView":19,
			"componentType":5123,
			"count":5124,
			"type":"SCALAR"
		}
	],
	"bufferViews":[
		{
			"buffer":0,
			"byteLength":7344,
			"byteOffset":0,
			"target":34962
		},
		{
			"buffer":0,
			"byteLength":7344,
			"byteOffset":7344,
			"target":34962
		},
		{
			"buffer":0,
			"byteLength":4896,
			"byteOffset":14688,
			"target":34962
		},
		{
			"buffer":0,
			"byteLength":1824,
			"byteOffset":19584,
			"target":34963
		},
		{
			"buffer":0,
			"byteLength":6408,
			"byteOffset":21408,
			"target":34962
		},
		{
			"buffer":0,
			"byteLength":6408,
			"byteOffset":27816,
			"target":34962
		},
		{
			"buffer":0,
			"byteLength":4272,
			"byteOffset":34224,
			"target":34962
		},
		{
			"buffer":0,
			"byteLength":1596,
			"byteOffset":38496,
			"target":34963
		},
		{
			"buffer":0,
			"byteLength":11256,
			"byteOffset":40092,
			"target":34962
		},
		{
			"buffer":0,
			"byteLength":11256,
			"byteOffset":51348,
			"target":34962
		},
		{
			"buffer":0,
			"byteLength":7504,
			"byteOffset":62604,
			"target":34962
		},
		{
			"buffer":0,
			"byteLength":2796,
			"byteOffset":70108,
			"target":34963
		},
		{
			"buffer":0,
			"byteLength":3108,
			"byteOffset":72904,
			"target":34962
		},
		{
			"buffer":0,
			"byteLength":3108,
			"byteOffset":76012,
			"target":34962
		},
		{
			"buffer":0,
			"byteLength":2072,
			"byteOffset":79120,
			"target":34962
		},
		{
			"buffer":0,
			"byteLength":774,
			"byteOffset":81192,
			"target":34963
		},
		{
			"buffer":0,
			"byteLength":41136,
			"byteOffset":81968,
			"target":34962
		},
		{
			"buffer":0,
			"byteLength":41136,
			"byteOffset":123104,
			"target":34962
		},
		{
			"buffer":0,
			"byteLength":27424,
			"byteOffset":164240,
			"target":34962
		},
		{
			"buffer":0,
			"byteLength":10248,
			"byteOffset":191664,
			"target":34963
		}
	],
	"buffers":[
		{
			"byteLength":201912,
			"uri":"leg_R.bin"
		}
	]
}
